<svg version="1.1" id="Layer_1" xmlns="http://www.w3.org/2000/svg" xmlns:xlink="http://www.w3.org/1999/xlink" x="0px" y="0px"
	 viewBox="0 0 300 320.7" enable-background="new 0 0 300 320.7" xml:space="preserve">
<path fill="#11A0FF" d="M195.8,167.6"/>
<g>
	<path fill="#11A0FF" d="M49.7,103.7c-3.7,0.6-6,4.3-4.9,7.8c6.1,20.2,24.8,34.9,46.9,34.9c9.2,0,17.1-2.6,22.8-5.2
		c4.5-2.1,9.9,0.5,10.8,5.5c0.7,3.4,1.8,6.8,3.3,10.1c1,2.1,3.1,3.4,5.3,3.4c1.1,0,2.3-0.3,3.3-1c2.4-1.6,3.1-4.8,1.9-7.4
		c-1.1-2.4-1.9-4.9-2.4-7.5c-0.9-4.8,2.8-9.2,7.7-9.2h11.3c5.2,0,8.6,4.2,7.6,9.2c-1.8,9.5-7.8,18.3-17.9,23.5
		c-1.4,0.7-2.9,1.3-4.4,1.8c-12.4,3.7-24.9,0.4-33.5-8.2l-2.4-2.4c-3.1-3.1-8.5-0.5-7.9,3.9l2.7,22.5c0.4,3,2.9,5.1,5.8,5.1
		c0.3,0,0.6,0,0.9-0.1c3.1-0.5,5.3-3.6,4.9-6.7l-0.1-0.5c-0.3-2.3,2-4.1,4.2-3.3c15.8,5.7,34.2,2.3,46.9-10.4
		c6.5-6.5,10.6-14.5,12.2-22.9c1-5,6.3-7.6,10.9-5.5c5.7,2.7,13.6,5.2,22.7,5.2c22.1,0,40.9-14.7,46.9-34.9c1.1-3.6-1.3-7.3-4.9-7.8
		l-0.1,0c-3-0.5-6,1.3-6.8,4.2c-4.5,15.1-18.5,26.1-35,26.1c-5.1,0-9.9-1-14.3-2.9c-6.2-2.6-4.3-11.9,2.4-11.8c0.1,0,0.2,0,0.2,0
		c18.1,0,33.2-12.9,36.6-30c0.7-3.6-1.9-7-5.6-7.1l-0.6,0c-2.9-0.1-5.4,1.9-6,4.7c-2.3,11.4-12.4,20-24.4,20c-0.1,0-0.2,0-0.2,0
		c-11-0.1-18-12-13.3-21.9c0.2-0.5,15.4-16.7,15.4-36.2C198.6,21.7,176.8,0,150,0c-26.8,0-48.6,21.7-48.6,48.6
		c0,19.6,15,35.7,15.3,36.2c4.8,9.9-2.1,21.8-13.1,21.9c-0.1,0-0.2,0-0.2,0c-12,0-22-8.5-24.4-19.8c-0.6-2.8-3-4.8-5.8-4.8L73,82
		c-4-0.1-7,3.5-6.2,7.4c3.5,16.9,18.6,29.7,36.5,29.7c0.1,0,0.2,0,0.2,0c6.7,0,8.7,9.2,2.5,11.8c-4.4,1.9-9.3,2.9-14.4,2.9
		c-16.5,0-30.5-11-35-26.1c-0.9-2.9-3.8-4.7-6.8-4.2L49.7,103.7z M137.9,79.2c-4.1,0-7.5-3.4-7.5-7.5c0-4.1,3.4-7.5,7.5-7.5
		s7.5,3.4,7.5,7.5C145.4,75.9,142,79.2,137.9,79.2z M162.1,79.2c-4.1,0-7.5-3.4-7.5-7.5c0-4.1,3.4-7.5,7.5-7.5s7.5,3.4,7.5,7.5
		C169.6,75.9,166.3,79.2,162.1,79.2z"/>
	<path fill="#11A0FF" d="M194.9,158.9l-2.4,2.4c-5.7,5.7-13.3,9.1-21.3,9.6c-3.1,0.2-5.7,2.8-5.6,5.9c0.1,3.3,2.9,5.9,6.2,5.7
		c4.4-0.3,8.6-1.1,12.7-2.6c2.2-0.8,4.4,1,4.1,3.3l-0.1,0.4c-0.4,3.3,1.9,6.4,5.2,6.7c0.2,0,0.4,0,0.6,0c2.9,0,5.4-2.2,5.8-5.1
		l2.7-22.5C203.4,158.4,198.1,155.8,194.9,158.9z"/>
</g>
<g>
	<path fill="#11A0FF" d="M78,262.1c-1.7-0.3-3.4-0.5-5.1-0.5c-4.5,0-9,1.2-13.6,3.5l0-8.4c0-3.9,0-7.8,0-11.7c0-0.5,0-1.1-0.1-1.5
		c-0.2-2.4-1.9-4.1-4.3-4.1l-0.1,0c-2.4,0-4.2,1.5-4.6,3.9c-0.1,0.6-0.1,1.2-0.1,1.7c0,9.7,0,19.5,0,29.2V286c0,9.7,0,19.3,0,29
		c0,0.5,0,1.1,0.1,1.8c0.3,2.3,2.2,3.9,4.5,3.9c0.1,0,0.1,0,0.2,0c2.4-0.1,4.1-1.7,4.3-4.1c0-0.5,0.1-1,0.1-1.5l0-2.5
		c0-12.3,0-24.9,0-37.4c0-0.5,0.1-0.7,0.5-1c2.4-1.6,4.6-2.6,6.8-3.3c3.2-0.9,6.3-1,9.2-0.3c4.9,1.2,7.7,5.1,7.7,10.6
		c0,8.1,0,16.2,0,24.2c0,3.4,0,6.8,0,10.2l0,0.2c0,0.3,0,0.5,0,0.8c0.2,2.1,1.6,3.7,3.7,4c0.3,0,0.6,0.1,0.9,0.1
		c2.7,0,4.5-2,4.5-4.9c0-5.3,0-10.6,0-16c0-5.6,0-11.2,0-16.7c0-2.3-0.2-4.6-0.6-6.8C90.7,268.8,85.5,263.5,78,262.1z"/>
	<path fill="#11A0FF" d="M288.1,263.3c-2.8-1.2-5.7-1.7-9-1.7c-1.4,0-2.8,0.1-4.3,0.3c-10.1,1.4-16.8,8.6-17.3,19
		c-0.2,4.2-0.2,8.5-0.1,12.6c0,1.8,0,3.7,0,5.5c0,2.2,0.2,4.4,0.7,6.5c1.8,7.9,8.4,13.9,16.5,14.9c1.3,0.2,2.6,0.2,4,0.2
		c3,0,6.2-0.4,9.6-1.2c2.5-0.6,5.2-1.3,7.6-2.6c1.9-1,2.7-3.2,1.9-5.2c-0.6-1.6-2.2-2.7-4-2.7c-0.3,0-0.6,0-0.9,0.1
		c-1,0.2-2,0.6-2.9,0.9l-0.3,0.1c-3.7,1.4-7.2,2.1-10.8,2.1c-0.5,0-1,0-1.5,0c-5.3-0.3-9.1-3.5-10.3-8.6c-0.4-1.8-0.4-3.7-0.4-5.7
		c0-1,0-2,0-3.1c0,0,0-0.1,0-0.1c0,0,0.1,0,0.2,0h0c2.3,0,4.6,0,7,0l6.9,0c1.3,0,2.7,0,4,0c3.2,0,6.4,0,9.6,0c3.3,0,5.6-2.1,5.7-5.1
		l0-1c0.1-3.8,0.3-7.7-0.6-11.6C297.8,270.4,294,265.8,288.1,263.3z M266.6,286C266.6,286,266.5,286,266.6,286
		C266.5,286,266.5,286,266.6,286c-0.1-0.8-0.1-1.5-0.1-2.2c0-1.9,0-3.8,0.5-5.6c1.3-4.9,4.8-7.7,10-8c0.7,0,1.3-0.1,1.8-0.1
		c2.7,0,4.8,0.5,6.6,1.5c3.1,1.7,4.8,4.5,5.3,8.7c0.2,1.3,0.2,2.6,0.2,3.9c0,0.6,0,1.1,0,1.7c0,0.1,0,0.1,0,0.1c0,0-0.1,0-0.1,0
		c0,0,0,0,0,0c-2,0-3.9,0-5.9,0l-6.2,0l-6.1,0C270.6,286,268.6,286,266.6,286z"/>
	<path fill="#11A0FF" d="M150.2,282.7c0-5.5,0-11.2,0-16.8c0-2.4-1.8-4.2-4.2-4.3c-2.4-0.1-4.4,1.4-4.8,3.8
		c-0.1,0.5-0.1,1.1-0.1,1.6v0.1c0,12.2,0,24.3,0,36.5v6.1c0,0.1,0,0.1,0,0.2c0,0.2,0,0.3,0,0.5c-4.5,1.2-8.2,1.8-11.7,1.8
		c-0.7,0-1.4,0-2.1-0.1c-2.9-0.2-5.1-1-6.8-2.5c-2.3-2.1-3.5-4.9-3.5-8.6c0-7.4,0-14.9,0-22.2c0-3.8,0-7.7,0-11.5
		c0-0.7,0-1.2-0.1-1.7c-0.3-2.3-2.1-3.9-4.5-3.9l-0.1,0c-2.5,0.1-4.1,1.6-4.4,4.1c0,0.4-0.1,0.8-0.1,1.3l0,5.8c0,8.9,0,17.7,0,26.6
		c0,1.9,0.1,4.1,0.5,6.2c1.2,5.9,4.1,10,8.8,12.5c4,2.1,8.2,2.4,11.5,2.5c0.3,0,0.6,0,0.9,0c5,0,10.4-0.9,16.4-2.8
		c3-0.9,4.3-2.7,4.3-5.9c0-5.4,0-10.8,0-16.3l0-6.7C150.2,286.9,150.2,284.8,150.2,282.7z"/>
	<path fill="#11A0FF" d="M32.6,293.5c-2.6-2.5-5.7-4-8.1-5.1c-1.2-0.5-2.4-1-3.6-1.5c-2.5-1-5.1-2.1-7.6-3.4
		c-1.3-0.7-2.7-1.6-3.5-2.9c-1-1.6-1.2-3.5-0.6-5.2c0.6-1.9,2.2-3.5,4.2-4.3c3.2-1.3,6.7-1.3,11.2,0c0.7,0.2,1.3,0.4,2,0.7
		c1.1,0.4,2.1,0.8,3.3,1c0.3,0.1,0.6,0.1,0.9,0.1c2,0,3.6-1.1,4.1-2.9c0.7-2.2-0.3-4.3-2.5-5.2c-4.8-2.1-9.4-3.1-13.8-3.1
		c-1.9,0-3.8,0.2-5.7,0.6c-7,1.4-11.8,6.2-12.8,12.9c-1,6.5,1.9,12.3,7.4,15.2c2.4,1.3,4.9,2.3,7.3,3.3c1,0.4,2.1,0.9,3.1,1.3
		l0.2,0.1c2.1,0.9,4.1,1.8,5.9,3.1c2.4,1.8,3.5,3.4,3.7,5.4c0.3,3.3-1.3,6.1-4.4,7.6c-1.7,0.8-3.6,1.2-5.8,1.2
		c-1.3,0-2.6-0.1-4.3-0.4c-2.3-0.3-4.6-1.1-6.7-1.9l-1-0.3c-1.5-0.5-3.2-0.2-4.2,0.9c-0.8,0.8-1.2,1.9-1.2,3c0,1.8,0.9,3.1,2.9,4
		c4.4,2.1,9.1,3.2,14.5,3.3l0,0l0,0c0.3,0,0.6,0,1,0c0.8,0,1.5-0.1,2.3-0.1c0.8-0.1,1.6-0.2,2.5-0.4c9-1.9,14.2-9.1,13.4-18.2
		C36.2,298.5,34.9,295.7,32.6,293.5z"/>
	<path fill="#11A0FF" d="M178.3,248.8c1.5-1.1,3.2-1.2,4.7-1.2c0.3,0,0.6,0,0.9,0c0.6,0,1.2,0.1,1.8,0.2c0.9,0.2,1.9,0.3,2.9,0.2
		c1.5-0.1,2.8-1,3.4-2.3c0.6-1.2,0.5-2.6-0.2-3.8c-0.7-1.1-1.9-1.9-3.6-2.2c-2-0.3-3.8-0.5-5.5-0.5c-1.2,0-2.4,0.1-3.5,0.3
		c-5,0.8-8.6,3.3-10.9,7.4c-1.6,2.9-1.8,6.1-1.8,8.9c0,6.8,0,13.7,0,20.5l0,13.1c0,8.5,0,17,0,25.6c0,0.5,0,1,0.1,1.6
		c0.3,2.4,2.1,4.1,4.5,4.1l0.1,0c2.5,0,4.2-1.7,4.4-4.2c0-0.5,0.1-0.9,0.1-1.4c0-12,0-23.9,0-35.9v-6.4c0-0.5,0-1,0-1.2
		c0.2,0,0.7,0,1.3,0c0.9,0,1.7,0,2.6,0c2.9,0,5.8,0,8.7-0.1c1.8,0,3.3-1.1,3.8-2.9c0.4-1.4,0.2-2.9-0.6-4c-0.8-1.1-2.2-1.8-3.7-1.8
		c-1.7,0-3.6,0-5.5,0c-2.1,0-4.2,0-6.6,0c0,0-0.1,0-0.1,0c0,0,0-0.1,0-0.1c0-2,0-4.1,0-6.1c0-0.7,0-1.4,0-2.1
		C175.6,251.9,176.5,250.1,178.3,248.8z"/>
	<path fill="#11A0FF" d="M212.3,248.7c1.5-1,3.2-1.2,4.6-1.2c0.3,0,0.6,0,0.8,0c0.6,0,1.2,0.1,1.8,0.2c0.9,0.2,1.9,0.3,2.8,0.2
		c1.5-0.1,2.7-0.9,3.4-2.2c0.6-1.2,0.6-2.6-0.1-3.8c-0.7-1.2-1.9-2-3.6-2.3c-2-0.4-3.8-0.5-5.5-0.5c-1.2,0-2.4,0.1-3.6,0.3
		c-4.9,0.8-8.5,3.3-10.8,7.4c-1.6,2.9-1.8,6.1-1.8,8.9c0,6.9,0,13.7,0,20.6l0,13.4c0,8.4,0,16.9,0,25.3c0,0.6,0,1.1,0.1,1.6
		c0.3,2.4,2.1,4,4.5,4c0.1,0,0.1,0,0.2,0c2.5-0.1,4.1-1.7,4.3-4.2c0-0.5,0.1-1,0.1-1.5l0-15.3c0-9.1,0-18.2,0-27.3
		c0-0.3,0-0.5,0-0.7c0-0.1,0-0.2,0-0.2l0.2,0c0.1,0,0.3,0,0.5,0l0.2,0c1.4,0,2.8,0,4.2,0c2.5,0,5,0,7.5-0.1c1.9,0,3.3-1.1,3.8-2.9
		c0.5-1.4,0.3-2.9-0.6-4c-0.8-1.2-2.2-1.8-3.8-1.8c-4,0-8,0-12.1,0c0,0,0,0,0,0c0,0,0,0,0,0c0-1.6,0-3.2,0-4.8c0-1.2,0-2.5,0-3.7
		C209.6,251.9,210.5,250,212.3,248.7z"/>
	<path fill="#11A0FF" d="M243.5,243.3c-0.2-2.3-1.9-3.9-4.2-4c-2.5-0.1-4.4,1.4-4.7,3.8c-0.1,0.6-0.1,1.1-0.1,1.8
		c0,23.4,0,46.8,0,70.2c0,0.6,0,1,0.1,1.5c0.3,2.5,2.1,4.1,4.5,4.1l0.1,0c2.5,0,4.2-1.6,4.4-4.2c0-0.5,0.1-0.9,0.1-1.4
		c0-9.7,0-19.5,0-29.2v-10.9c0-10,0-20,0-29.9C243.6,244.4,243.5,243.9,243.5,243.3z"/>
</g>
</svg>
